HIERARCHY
ROOT hip
{
	OFFSET 0.000000 0.000000 0.000000 
	CHANNELS 6 Xposition Yposition Zposition Xrotation Zrotation Yrotation
	JOINT abdomen
	{
		OFFSET 0.000000 3.402643 0.000000 
		CHANNELS 3 Xrotation Zrotation Yrotation
		JOINT chest
		{
			OFFSET 0.000000 8.438565 -0.680529 
			CHANNELS 3 Xrotation Zrotation Yrotation
			JOINT neck
			{
				OFFSET 0.000000 10.207942 -0.272212 
				CHANNELS 3 Xrotation Zrotation Yrotation
				JOINT head
				{
					OFFSET 0.000000 3.130431 0.000000 
					CHANNELS 3 Xrotation Zrotation Yrotation
					End Site
					{
						OFFSET 0.000000 3.130435 0.000000 
					}
				}
			}
			JOINT lCollar
			{
				OFFSET 3.470700 6.669187 -0.816635 
				CHANNELS 3 Yrotation Zrotation Xrotation
				JOINT lShldr
				{
					OFFSET 3.198488 0.000000 0.000000 
					CHANNELS 3 Zrotation Yrotation Xrotation
					JOINT lForeArm
					{
						OFFSET 10.139888 0.000000 0.000000 
						CHANNELS 3 Yrotation Zrotation Xrotation
						JOINT lHand
						{
							OFFSET 8.370511 0.000000 0.000000 
							CHANNELS 3 Zrotation Yrotation Xrotation
							End Site
							{
								OFFSET 4.083176 0.000000 0.000000 
							}
						}
					}
				}
			}
			JOINT rCollar
			{
				OFFSET -3.470700 6.669187 -0.816635 
				CHANNELS 3 Yrotation Zrotation Xrotation
				JOINT rShldr
				{
					OFFSET -3.198488 0.000000 0.000000 
					CHANNELS 3 Zrotation Yrotation Xrotation
					JOINT rForeArm
					{
						OFFSET -10.139888 0.000000 0.000000 
						CHANNELS 3 Yrotation Zrotation Xrotation
						JOINT rHand
						{
							OFFSET -8.370511 0.000000 0.000000 
							CHANNELS 3 Zrotation Yrotation Xrotation
							End Site
							{
								OFFSET -4.083176 0.000000 0.000000 
							}
						}
					}
				}
			}
		}
	}
	JOINT lThigh
	{
		OFFSET 5.308129 -1.633274 1.361059 
		CHANNELS 3 Xrotation Zrotation Yrotation
		JOINT lShin
		{
			OFFSET -2.041588 -20.007561 0.000000 
			CHANNELS 3 Xrotation Zrotation Yrotation
			JOINT lFoot
			{
				OFFSET 0.000000 -19.190928 -1.224953 
				CHANNELS 3 Xrotation Yrotation Zrotation
				End Site
				{
					OFFSET 0.000000 -2.449906 4.627600 
				}
			}
		}
	}
	JOINT rThigh
	{
		OFFSET -5.308129 -1.633274 1.361059 
		CHANNELS 3 Xrotation Zrotation Yrotation
		JOINT rShin
		{
			OFFSET 2.041588 -20.007561 0.000000 
			CHANNELS 3 Xrotation Zrotation Yrotation
			JOINT rFoot
			{
				OFFSET 0.000000 -19.190928 -1.224953 
				CHANNELS 3 Xrotation Yrotation Zrotation
				End Site
				{
					OFFSET 0.000000 -2.449906 4.627600 
				}
			}
		}
	}
}
MOTION
Frames: 8
Frame Time: 0.033333
-0.369600 52.739811 1.703892 -6.533203 4.882813 -131.347656 5.031136 0.650717 2.383265 -6.267380 -5.070459 -2.316035 0.000000 0.000000 0.000000 -16.181641 -0.341797 -4.121152 0.118777 -1.842642 3.636007 -85.158653 28.134178 -11.701210 -58.236179 0.794375 0.237969 -16.372763 50.043209 -15.638635 -0.478647 10.595438 2.856020 72.870506 -30.584515 2.947188 68.064613 -0.341920 0.610532 -24.682295 -70.396194 35.241619 -6.356654 0.361316 0.614618 12.729357 -6.045456 -1.671504 -2.980917 -4.535195 -8.588959 -1.846169 -8.821496 -19.068624 12.384106 5.452100 1.197522 -5.798906 -0.364898 14.100254 
-0.801039 52.715004 1.771600 -6.357422 5.058594 -131.522568 5.207528 0.475663 2.358011 -6.275862 -4.718998 -2.266331 0.000000 0.000000 0.000000 -16.357422 -0.507813 -4.072266 -0.060501 -1.859999 3.665996 -85.526184 27.642323 -12.110300 -56.654335 0.828275 0.523827 -14.580006 45.827019 -13.360312 -0.306080 10.604489 2.870843 73.268585 -30.494171 2.124707 68.240036 -0.319408 0.436094 -25.850374 -71.114120 35.982430 -6.233652 0.126723 0.965965 12.903128 -6.113106 -1.703716 -3.148818 -4.099067 -8.600789 -2.617361 -9.271199 -18.841778 13.630696 5.552475 1.528749 -6.045469 -0.331216 13.902386 
-1.217678 52.657108 1.825266 -6.181641 5.234375 -131.874115 5.207528 0.475663 2.358011 -6.464526 -4.205774 -2.000869 0.000000 0.000000 0.000000 -16.533201 -0.683594 -4.023554 -0.023165 -1.856938 3.839287 -85.912331 27.294165 -12.635987 -55.597622 0.707400 0.424325 -12.915499 43.006916 -11.312661 -0.344208 10.601972 3.049387 73.272148 -30.490732 1.939427 68.415802 -0.316420 0.447194 -25.197800 -71.726273 34.848640 -5.937503 -0.048605 1.314773 13.266832 -6.143089 -1.749591 -3.360807 -3.783857 -8.653605 -2.890567 -9.191024 -18.637100 14.142957 5.534062 1.572010 -6.001804 -0.572319 14.019052 
-1.564115 52.599228 1.862960 -6.181641 5.058594 -132.030380 5.189548 0.342214 2.172237 -6.468725 -4.030044 -1.970850 0.000000 0.000000 0.000000 -16.708984 -0.507813 -3.896571 -0.192708 -1.864533 3.868882 -86.116356 27.296255 -12.910419 -55.069572 0.666410 0.389111 -12.660230 42.360905 -10.841290 -0.346127 10.425508 3.057873 73.080566 -30.298548 2.191940 68.594719 -0.498949 0.546263 -25.197800 -71.726273 34.848640 -5.791153 -0.293097 1.682504 13.622078 -6.103390 -1.622284 -3.595558 -4.067158 -8.753812 -3.261243 -9.249510 -18.258774 14.849745 5.574457 1.306877 -6.214764 -0.512090 13.820086 
-1.772523 52.549610 1.856364 -6.181641 4.892579 -132.011719 5.199034 0.298164 2.342195 -6.292566 -4.025839 -2.157361 0.000000 0.000000 0.000000 -17.060547 -0.341797 -3.769531 -0.192708 -1.864533 3.868882 -86.127441 27.472540 -12.922128 -55.067688 0.539471 0.340192 -13.035809 43.074360 -11.161492 -0.346127 10.425508 3.057873 73.316002 -29.621662 2.385623 68.418953 -0.501940 0.544938 -23.983595 -71.386597 33.955109 -5.429657 -0.546359 2.199337 13.966915 -6.122538 -1.646997 -4.078031 -3.997872 -8.301821 -3.857348 -9.372684 -17.514938 15.370328 5.380671 1.174007 -6.420520 -0.519691 13.804212 
-1.811771 52.475170 1.821343 -6.171875 4.541016 -132.158203 5.200449 0.130118 2.328831 -6.116410 -4.021603 -2.168077 0.000000 0.000000 0.000000 -17.236328 -0.175781 -3.642608 -0.191042 -1.688524 3.865294 -86.339088 27.633574 -13.139482 -55.070297 0.715233 0.408641 -12.633141 43.300869 -11.331783 -0.308023 10.428030 2.879447 73.165512 -29.022154 2.699727 68.594719 -0.498949 0.556029 -23.890472 -71.201126 33.854961 -5.116128 -0.722271 2.710101 14.142390 -6.122698 -1.497797 -4.548611 -4.244442 -7.981077 -4.433292 -9.430564 -17.484964 16.624517 5.290817 1.631195 -6.648038 -0.866758 14.012256 
-1.647991 52.417290 1.809244 -6.171875 4.013672 -132.275391 5.375699 0.123113 2.316940 -6.112145 -4.197332 -2.198092 0.000000 0.000000 0.000000 -17.939455 0.000000 -3.339844 -0.023165 -1.856938 3.839287 -85.935806 27.831902 -12.680833 -55.071884 0.822643 0.281683 -11.755909 43.279770 -10.741017 -0.480493 10.418984 2.864093 73.006042 -28.313406 2.967165 69.119667 -0.353250 0.325490 -24.511513 -71.473946 34.310246 -5.152120 -0.965976 3.079691 14.846407 -6.113386 -1.571436 -4.859653 -4.143438 -7.703867 -4.950628 -9.606091 -17.086163 17.834309 5.241817 1.737766 -7.086780 -1.226631 13.997071 
-0.983918 52.392475 1.957476 -6.347656 3.310547 -132.733810 6.068723 -0.000558 2.093467 -5.935957 -4.193062 -2.384575 0.000000 0.000000 0.000000 -18.994139 0.166016 -2.695284 -0.054444 -2.036718 3.659916 -85.355469 27.764254 -13.095426 -54.706390 0.544806 0.492345 -10.069361 42.941185 -9.757398 -0.480493 10.418984 2.864093 72.654091 -27.253506 3.912642 69.647110 -0.353979 0.348860 -24.358538 -71.630814 33.837017 -5.201684 -1.210059 3.596939 15.023986 -5.997065 -1.759377 -4.881343 -3.935705 -7.605659 -6.053421 -9.848465 -16.643442 19.266659 5.370703 1.752447 -7.611713 -1.059934 13.823924 
